<svg width="127" height="162" viewBox="0 0 127 162" fill="none" xmlns="http://www.w3.org/2000/svg">
<path d="M47.8187 81.456C56.6422 89.833 66.7322 99.5773 65.8731 111.714C65.622 115.252 64.2928 118.845 61.6074 121.163C57.812 124.439 51.8847 124.788 48.7406 128.692C45.904 132.213 46.4987 137.67 49.2416 141.263C51.9856 144.856 56.4014 146.82 60.8286 147.735C70.9484 149.826 81.985 146.866 89.7024 139.993C90.9206 138.907 92.0884 137.69 92.6954 136.176C93.7613 133.515 92.9176 130.51 92.0133 127.791C88.975 118.651 85.265 109.071 87.3412 99.6668C89.6726 89.1087 98.7389 81.4036 103.074 71.4987C107.107 62.2853 106.679 51.2374 101.947 42.3636C100.17 39.0311 97.6956 35.8993 94.2767 34.2994C91.0502 32.789 87.3453 32.7942 83.7845 32.9032C70.1789 33.3209 45.7713 31.8466 36.1669 43.7515C25.8948 56.4826 38.4726 72.5811 47.8187 81.456Z" fill="#FFE7FB"/>
<path d="M34.5603 150.678C33.1991 148.672 31.6908 146.676 29.6135 145.424C24.9539 142.617 18.6264 144.442 14.6797 148.187C10.732 151.932 8.61252 157.158 6.60522 162.216C5.54138 164.893 4.47857 167.572 3.41576 170.25C2.0659 173.65 0.702663 177.107 0.362112 180.749C0.022589 184.391 0.840529 188.309 3.36432 190.957C5.52697 193.228 8.65264 194.305 11.7176 194.971C18.8517 196.518 26.2389 196.257 33.5355 195.988C59.4988 195.03 43.3231 163.591 34.5603 150.678Z" fill="#6987FF"/>
<path d="M88.1727 168.792C88.9495 164.47 89.1933 160.065 90.0401 155.756C90.9537 151.102 92.5731 146.587 94.8232 142.413C96.0579 140.122 97.6608 137.788 100.118 136.935C102.517 136.103 105.212 136.901 107.361 138.252C113.858 142.334 116.269 150.476 118.18 157.906C120.492 166.894 122.804 175.881 125.116 184.868C125.583 186.682 125.837 189.055 124.224 190.006C123.594 190.375 122.829 190.406 122.098 190.425C111.359 190.708 98.5405 192.21 87.9752 190.07C81.2526 188.709 82.372 189.405 84.0912 182.828C85.3289 178.091 87.2992 173.658 88.1727 168.792Z" fill="#6987FF"/>
<path d="M55.578 178.098C56.7334 181.042 58.0369 184.173 60.6832 185.903C64.3428 188.298 69.5293 187.057 72.6961 184.041C75.8629 181.023 77.3712 176.665 78.253 172.381C79.1347 168.097 79.5061 163.686 80.9228 159.548C82.318 155.468 84.7234 151.657 85.1134 147.362C85.2193 146.205 84.9879 144.76 83.8921 144.373C83.4116 144.205 82.8828 144.296 82.3848 144.403C78.253 145.297 74.3474 147.211 70.1414 147.643C62.8736 148.389 51.0129 139.687 47.309 148.068C43.8881 155.808 52.8124 171.056 55.578 178.098Z" fill="#DAC8FF"/>
<path d="M51.0885 77.6711C48.5874 77.6948 46.0873 77.7195 43.5851 77.7442C42.8669 77.7514 42.0511 77.8018 41.5912 78.3533C41.0232 79.0323 41.3597 80.1383 42.0531 80.6878C42.7476 81.2361 43.6694 81.376 44.546 81.4964C45.6737 81.6518 46.8003 81.8061 47.9279 81.9625C49.5175 82.1806 51.32 82.3421 52.5444 81.3071C53.7687 80.2711 53.3088 77.6485 51.71 77.7709" fill="#F03FA3"/>
<path d="M86.2561 78.9268C83.7549 78.9504 81.2538 78.9751 78.7536 78.9998C78.0345 79.007 77.2186 79.0574 76.7576 79.6099C76.1907 80.289 76.5262 81.394 77.2206 81.9423C77.9141 82.4907 78.837 82.6306 79.7136 82.751C80.8401 82.9074 81.9678 83.0617 83.0954 83.2181C84.684 83.4362 86.4865 83.5978 87.7119 82.5627C88.9362 81.5267 88.4763 78.9041 86.8775 79.0255" fill="#F03FA3"/>
<path d="M4.4129 187.587L9.58805 163.79C12.3145 151.248 19.9795 140.342 30.8545 133.52L50.9687 120.906L51.514 115.135L52.9338 100.227L52.975 99.8052" stroke="black" stroke-miterlimit="10"/>
<path d="M117.618 84.9249C115.044 75.9142 106.158 30.4994 106.158 30.4994L86.6023 29.486C95.291 37.1067 97.6996 47.3232 97.6996 47.3232C97.2983 59.5656 95.4052 69.2986 92.7302 77.0459H92.7199C89.6333 86.0073 85.4665 92.3049 81.2996 96.7084C79.9312 98.1591 78.5526 99.404 77.215 100.463C74.6326 102.532 72.1839 103.94 70.1571 104.876C66.8545 106.43 64.6218 106.77 64.6218 106.77C58.2429 104.384 53.1089 100.854 48.9729 96.7084C30.8342 78.476 31.8527 48.0949 31.4001 47.3232C31.4001 47.3232 30.9895 34.8432 42.0107 27.1741L24.1013 26.2461C24.1013 26.2461 19.2379 53.91 16.1781 74.1692C13.1183 94.4285 16.6545 107.772 30.1881 109.188C43.7216 110.604 95.0523 109.188 95.0523 109.188C95.0523 109.188 124.55 109.188 117.618 84.9249Z" fill="black"/>
<path d="M77.1943 100.288L77.2149 100.463L77.7808 106.452L79.1492 120.906L85.8985 125.145H85.919V125.156L99.2633 133.52C110.138 140.343 117.803 151.248 120.53 163.79L123.75 178.615L125.705 187.588" stroke="black" stroke-miterlimit="10"/>
<path d="M44.1055 56.0234C44.1055 56.0234 50.0029 54.0141 55.9013 56.0234" stroke="black" stroke-width="2" stroke-miterlimit="10" stroke-linecap="round" stroke-linejoin="bevel"/>
<path d="M51.8911 64.8701C51.8911 66.5317 51.0454 67.8775 50.0031 67.8775C48.9619 67.8775 48.1162 66.5317 48.1162 64.8701C48.1162 63.2085 48.9619 61.8628 50.0031 61.8628C51.0454 61.8628 51.8911 63.2085 51.8911 64.8701Z" fill="black"/>
<path d="M85.7403 56.0232C85.7403 56.0232 79.8419 54.0138 73.9445 56.0232" stroke="black" stroke-width="2" stroke-miterlimit="10" stroke-linecap="round" stroke-linejoin="bevel"/>
<path d="M77.9541 64.8704C77.9541 66.532 78.7988 67.8777 79.841 67.8777C80.8833 67.8777 81.729 66.532 81.729 64.8704C81.729 63.2088 80.8833 61.863 79.841 61.863C78.7988 61.863 77.9541 63.2088 77.9541 64.8704Z" fill="black"/>
<path d="M63.6109 64.9009C63.7292 65.1591 64.2457 69.5297 60.9431 72.3755C60.9431 72.3755 60.2599 75.2491 65.2138 75.3149" stroke="black" stroke-miterlimit="10"/>
<path d="M57.8289 84.2898C57.8289 84.2898 66.1492 87.0482 72.5981 84.4318" stroke="black" stroke-miterlimit="10"/>
<path d="M32.4299 58.8162C32.4299 58.8162 25.5242 50.1286 21.9675 54.1566C18.4117 58.1845 25.4028 77.6958 36.3766 75.4107" stroke="black" stroke-miterlimit="10"/>
<path d="M26.4873 61.9663C26.4873 61.9663 31.6779 61.9951 33.891 66.1126" stroke="black" stroke-miterlimit="10"/>
<path d="M29.2412 66.1048C29.2412 66.1048 29.4069 64.331 32.7311 64.543" stroke="black" stroke-miterlimit="10"/>
<path d="M96.9371 58.8165C96.9371 58.8165 103.843 50.1288 107.398 54.1568C110.955 58.1848 103.963 77.696 92.9904 75.4109" fill="#F7F6F2"/>
<path d="M103.073 61.9666C103.073 61.9666 97.882 61.9954 95.6689 66.1128" stroke="black" stroke-miterlimit="10"/>
<path d="M100.318 66.1048C100.318 66.1048 100.152 64.331 96.8281 64.543" stroke="black" stroke-miterlimit="10"/>
<path d="M31.4004 47.3232C31.8531 48.0949 30.8345 78.476 48.9733 96.7084C53.1093 100.854 58.2433 104.384 64.6222 106.77C64.6222 106.77 66.8548 106.431 70.1574 104.876C72.1843 103.94 74.633 102.532 77.2154 100.463C78.5529 99.404 79.9316 98.1591 81.3 96.7084C85.4668 92.3049 89.6337 86.0072 92.7203 77.0459H92.7306C95.4056 69.2986 97.2987 59.5656 97.6999 47.3232" stroke="black" stroke-miterlimit="10"/>
<path d="M89.5286 37.6226C89.5286 37.6226 68.1108 58.6719 32.4311 60.8747C32.4311 60.8747 21.4275 49.2229 24.1015 28.3042C26.7755 7.3855 71.9197 -16.5344 97.7069 16.3365C97.7069 16.3365 118.546 32.0781 96.9363 60.8747C96.9363 60.8747 98.1792 55.5525 89.5286 37.6226Z" fill="black"/>
<path d="M40.1602 127.684C40.1602 127.684 52.9303 141.53 66.253 145.516C66.253 145.516 80.4862 143.509 89.1739 127.192" stroke="black" stroke-miterlimit="10"/>
<path d="M37.7874 129.173C37.7874 129.173 47.3784 144.047 65.9379 148.765C65.9379 148.765 86.3998 143.927 91.5029 128.653" stroke="black" stroke-miterlimit="10"/>
<path d="M36.3945 130.045C36.3945 130.045 46.75 162.239 51.3109 187.587" stroke="black" stroke-miterlimit="10"/>
<path d="M25.8284 137.154C25.8284 137.154 21.5854 151.754 30.236 161.033C38.8856 170.313 49.3604 177.841 49.3604 177.841" stroke="black" stroke-miterlimit="10"/>
<path d="M93.7338 130.045C93.7338 130.045 83.3773 162.239 78.8174 187.587" stroke="black" stroke-miterlimit="10"/>
<path d="M104.303 137.154C104.303 137.154 108.545 151.753 99.8939 161.033C91.2443 170.313 80.7695 177.841 80.7695 177.841" stroke="black" stroke-miterlimit="10"/>
<path d="M77.7814 106.452C70.7337 108.859 58.48 112.862 51.5146 115.136L52.9345 100.228C56.268 102.851 60.1365 105.093 64.6223 106.77C64.6223 106.77 66.8549 106.432 70.1575 104.877C72.1844 103.941 74.6331 102.532 77.2155 100.463L77.7814 106.452Z" fill="black"/>
</svg>
