<svg width="127" height="160" viewBox="0 0 127 160" fill="none" xmlns="http://www.w3.org/2000/svg">
<path d="M24.3501 82.6966C27.1687 87.4704 31.1015 91.4749 34.3861 95.9412C39.9269 103.475 43.6015 112.369 44.9963 121.616C45.9466 127.912 46.344 135.272 51.5463 138.943C54.171 140.796 57.5167 141.251 60.7263 141.435C64.2616 141.639 68.1718 141.449 70.7815 139.054C74.139 135.973 73.9129 130.753 74.1925 126.205C74.8985 114.732 80.3451 104.185 84.2971 93.3893C89.5036 79.1667 92.2023 64.0292 92.2323 48.8831C92.244 42.7606 91.6087 36.1056 87.4553 31.6072C83.9864 27.8502 78.7306 26.361 73.6858 25.5244C59.5339 23.1771 39.7962 25.3337 32.7213 39.6774C26.9255 51.4296 17.3267 70.7998 24.3501 82.6966Z" fill="#FFE7FB"/>
<path d="M16.5847 170.001C20.0783 157.864 29.3547 146.526 41.8118 144.447C44.6133 143.98 47.584 144.009 50.1765 145.168C51.9238 145.949 53.4097 147.2 55.0135 148.245C58.9205 150.79 63.6118 152.112 68.2741 151.981C74.6516 151.804 80.923 148.996 87.2287 149.974C95.3727 151.238 101.257 158.448 105.005 165.788C111.697 178.901 114.147 194.137 111.903 208.687C111.642 210.358 41.4251 208.351 34.8408 208.312C26.3197 208.262 18.7627 209.003 15.3645 200.012C12.1195 191.427 14.1572 178.438 16.5847 170.001Z" fill="#C3C62B"/>
<path d="M98.3594 68.9242C95.5065 74.7746 94.4405 81.4831 95.3394 87.9313C99.6235 89.2426 104.077 86.6575 107.584 83.8678C109.883 82.038 112.128 79.9961 113.41 77.3521C114.695 74.7082 114.83 71.3271 113.059 68.982C111.431 66.8266 108.525 65.9567 105.827 66.112C103.131 66.2674 100.572 67.2947 98.068 68.3082" fill="#FFE7FB"/>
<path d="M64.4909 87.7515C64.8305 87.8318 63.6606 92.1824 58.7476 92.0999C53.8346 92.0185 50.2318 93.9833 50.3143 102.582L48.1599 101.27C48.1599 101.27 43.6219 82.831 64.4909 87.7515Z" fill="black"/>
<path d="M64.6007 87.7515C64.26 87.8318 65.4298 92.1824 70.3428 92.0999C75.2558 92.0185 78.8587 93.9833 78.7772 102.582L80.9316 101.27C80.9316 101.27 85.4686 82.831 64.6007 87.7515Z" fill="black"/>
<path d="M30.5682 51.7737C30.5682 51.7737 30.3753 63.9748 32.8501 77.8492C35.0784 90.3406 39.46 104.182 48.084 111.681C52.08 115.151 56.9758 117.262 62.9858 117.272C67.7639 117.272 71.8884 116.352 75.4451 114.713C76.2486 114.347 77.0199 113.941 77.7591 113.501C78.0055 113.363 78.2519 113.212 78.4876 113.051C78.9804 112.752 79.4518 112.43 79.9125 112.088C80.1053 111.949 80.2874 111.81 80.4802 111.669C80.7481 111.456 81.0159 111.252 81.273 111.028C81.7015 110.674 82.1193 110.309 82.5264 109.924C82.9764 109.505 83.4263 109.067 83.8548 108.606C84.1977 108.242 84.5405 107.855 84.8726 107.471C84.9047 107.439 84.9369 107.396 84.969 107.363C85.269 107.01 85.5582 106.645 85.8368 106.282C85.8796 106.239 85.9225 106.185 85.9546 106.142C91.7825 98.5575 94.7179 88.1873 96.132 78.5231C96.1427 78.492 96.1427 78.4802 96.1427 78.4802C98.2103 64.3497 97.0533 51.7737 97.0533 51.7737" stroke="black" stroke-miterlimit="10"/>
<path d="M51.6084 114.08L51.5977 114.22L50.4407 126.411L49.4765 136.598L34.3497 146.081L28.5325 149.734C27.9004 150.13 27.2791 150.537 26.6684 150.966C16.3304 158.111 9.06692 168.931 6.38866 181.261L1 206.041" stroke="black" stroke-miterlimit="10"/>
<path d="M75.4453 114.713L75.7667 118.109L77.5236 136.598L94.461 147.226L98.4676 149.734C99.7318 150.525 100.964 151.372 102.142 152.283C111.516 159.397 118.094 169.66 120.611 181.261L126 206.041" stroke="black" stroke-miterlimit="10"/>
<path d="M31.5963 70.7811C31.5963 70.7811 24.0619 60.1817 19.647 64.6715C15.2333 69.1613 22.1871 92.4322 35.1702 90.4481" stroke="black" stroke-miterlimit="10"/>
<path d="M97.0712 70.4786C97.0712 70.4786 104.246 59.6328 108.808 63.9715C113.371 68.3103 107.201 91.8019 94.1594 90.2549" stroke="black" stroke-miterlimit="10"/>
<path d="M24.443 74.0945C24.443 74.0945 30.5141 74.4544 32.8463 79.4114" stroke="black" stroke-miterlimit="10"/>
<path d="M27.4062 79.1082C27.4062 79.1082 27.7116 77.0438 31.5876 77.5002" stroke="black" stroke-miterlimit="10"/>
<path d="M104.471 73.5535C104.471 73.5535 98.4146 74.1159 96.2506 79.1478" stroke="black" stroke-miterlimit="10"/>
<path d="M101.678 78.6635C101.678 78.6635 101.304 76.6098 97.4443 77.1968" stroke="black" stroke-miterlimit="10"/>
<path d="M96.2513 72.4038C96.2513 72.4038 92.4836 70.7658 92.4836 66.8352C92.4836 62.9046 94.4494 55.8629 91.829 51.7684C89.2097 47.6749 85.4419 43.9082 85.4419 43.9082C85.4419 43.9082 62.6788 38.3407 36.8036 47.0193C36.8036 47.0193 32.9984 50.5075 34.0193 57.276C36.4758 73.5534 31.8424 72.466 31.8424 72.466C31.8424 72.466 24.4429 61.7583 26.7462 51.1963C26.7462 51.1963 12.8611 37.9582 23.4573 17.296C35.171 -5.54958 75.5591 -3.85371 89.3168 11.2838C100.362 23.4378 96.2513 31.4618 96.2513 31.4618C96.2513 31.4618 111.975 45.5463 96.2513 72.4038Z" fill="black"/>
<path d="M43.1157 41.1227C41.047 38.6126 39.4647 35.7137 38.2316 32.6851C36.9996 29.649 36.2508 26.4094 35.9851 23.1301C35.8051 21.49 35.9251 19.8402 35.9765 18.1957C36.2572 16.5727 36.359 14.9164 36.9086 13.3566C37.1582 12.5735 37.3135 11.7636 37.6392 11.0105L38.5959 8.75001C38.8905 7.98617 39.3468 7.30161 39.7593 6.59991C40.1728 5.8982 40.5982 5.20614 41.0277 4.52051C39.6586 7.46231 38.2981 10.3955 37.7078 13.5548C37.2889 15.0986 37.201 16.7012 36.9878 18.276C36.9718 19.8691 36.8593 21.461 37.0521 23.0476C37.2846 26.223 37.9767 29.363 38.9998 32.399C39.529 33.9117 40.1182 35.4083 40.822 36.8567C41.4734 38.333 42.2672 39.7396 43.1157 41.1227Z" fill="white"/>
<path d="M50.4819 0.891357C49.3635 2.72436 48.6575 4.73627 48.049 6.74925C47.4715 8.77723 47.0837 10.8523 46.8352 12.9446L46.6606 14.5162L46.5684 16.0974C46.4624 17.1516 46.517 18.2111 46.4699 19.2717C46.4624 20.3323 46.5192 21.394 46.5224 22.461C46.5609 23.5269 46.6552 24.5907 46.6702 25.6696C46.4142 24.6272 46.217 23.5709 45.9996 22.5135C45.8699 21.4465 45.6996 20.3784 45.6343 19.3006C45.4982 17.1473 45.5046 14.9726 45.7714 12.8171C46.0478 10.667 46.4967 8.52761 47.2573 6.48892C48.0158 4.46201 49.0239 2.48439 50.4819 0.891357Z" fill="white"/>
<path d="M49.1259 13.2811C48.9952 12.1209 49.0412 10.9585 49.1644 9.8058C49.2812 8.65201 49.5126 7.51 49.834 6.38834C50.1725 5.27205 50.5807 4.16432 51.1935 3.14979C51.7891 2.13955 52.5508 1.17431 53.5525 0.561523C52.8604 1.50106 52.3751 2.49844 51.9413 3.52261C51.5138 4.54785 51.1699 5.61165 50.8625 6.68831C50.2143 8.83842 49.7483 11.0442 49.1259 13.2811Z" fill="white"/>
<path d="M63.0578 13.281C62.9731 15.6068 62.821 17.9058 62.8563 20.2038C62.8938 22.4996 63.0085 24.7868 63.3106 27.0505C63.6148 29.3131 64.1237 31.535 64.7847 33.7193C65.1639 34.7928 65.5239 35.8823 66.0424 36.9043C66.4441 37.9917 67.1041 38.9334 67.6205 39.9843C66.1153 38.2145 64.894 36.1812 64.0091 34C63.1413 31.8146 62.5853 29.5145 62.2478 27.1919C61.9661 24.8618 61.8772 22.5124 62.0357 20.1823C62.1064 19.0168 62.2361 17.8565 62.3957 16.7038C62.5842 15.5532 62.8081 14.4134 63.0578 13.281Z" fill="white"/>
<path d="M58.3463 42.5541C58.3463 42.5541 49.2498 45.4638 52.3202 51.7684C52.3202 51.7684 45.4563 41.1593 58.3463 42.5541Z" fill="black"/>
<path d="M39.7512 60.7553C40.3019 60.0482 40.9146 59.5576 41.5371 59.083L43.4033 59.158C44.6449 59.2308 45.8844 59.3723 47.1196 59.5833C48.357 59.7901 49.5858 60.1061 50.8017 60.4928C51.4059 60.7018 52.0112 60.9128 52.6026 61.1828C53.0075 61.8663 53.345 62.6183 53.5539 63.4432C52.7033 63.7368 52.0198 63.8771 51.3149 64.1288C50.8274 63.9028 50.3111 63.7239 49.7947 63.545C48.7491 63.214 47.6746 62.9333 46.569 62.7501C45.4656 62.5615 44.345 62.433 43.2169 62.3666C42.6523 62.343 42.0877 62.2991 41.5253 62.3291C40.9597 61.8459 40.3854 61.3852 39.7512 60.7553Z" fill="black"/>
<path d="M48.1606 69.998C48.1606 71.7271 47.2811 73.1294 46.1948 73.1294C45.1095 73.1294 44.23 71.7271 44.23 69.998C44.23 68.2678 45.1095 66.8655 46.1948 66.8655C47.2811 66.8655 48.1606 68.2678 48.1606 69.998Z" fill="black"/>
<path d="M86.6183 59.9571C85.9948 60.5902 85.4516 61.0734 84.9245 61.5758C84.3793 61.5694 83.8329 61.6412 83.2876 61.699C82.1981 61.8319 81.1182 62.0547 80.0673 62.3558C79.0142 62.6493 77.9889 63.0296 77.0151 63.5031C76.5202 63.7259 76.0488 63.9906 75.5839 64.2637C74.8586 64.103 74.1569 64.0484 73.2827 63.8459C73.3995 63.006 73.6341 62.2272 73.9437 61.4998C74.4954 61.1762 75.0536 60.8656 75.6332 60.602C76.7795 60.046 77.9729 59.6036 79.1899 59.264C80.4047 58.9169 81.6421 58.6619 82.8923 58.5098C83.5169 58.4273 84.1457 58.3941 84.7767 58.333C85.4281 58.784 86.0655 59.2533 86.6183 59.9571Z" fill="black"/>
<path d="M78.5114 69.998C78.5114 71.7271 79.3909 73.1294 80.4761 73.1294C81.5624 73.1294 82.442 71.7271 82.442 69.998C82.442 68.2678 81.5624 66.8655 80.4761 66.8655C79.3909 66.8655 78.5114 68.2678 78.5114 69.998Z" fill="black"/>
<path d="M60.827 68.5903C60.9502 69.081 61.1955 76.5105 57.6345 84.8024C57.6345 84.8024 61.3884 87.3071 65.9328 84.5238" stroke="black" stroke-miterlimit="10"/>
<path d="M56.2318 94.7144C56.2318 94.7144 64.4991 96.4938 73.2837 95.1922" stroke="black" stroke-miterlimit="10"/>
<path d="M60.9293 98.4718C60.9293 98.4718 65.5991 99.2496 68.0524 97.9404" stroke="black" stroke-miterlimit="10"/>
<path d="M96.1324 78.5235C94.7183 88.1877 91.7829 98.5579 85.955 106.143C83.1589 109.764 79.7093 112.753 75.4455 114.713C71.8888 116.352 67.7643 117.273 62.9862 117.273C56.9762 117.263 52.0804 115.151 48.0844 111.681C39.4604 104.182 35.0788 90.341 32.8505 77.8496C32.8505 77.8496 38.5605 91.4873 42.6208 96.1475C46.6703 100.818 50.677 104.417 64.9468 104.664C79.2165 104.417 83.2339 100.818 87.2834 96.1475C91.2044 91.6373 95.8431 79.2841 96.1324 78.5235Z" fill="black"/>
<path d="M49.4735 136.599L65.933 154.123L77.5267 136.599" stroke="black" stroke-miterlimit="10"/>
<path d="M43.2391 140.51L50.8872 156.251L61.3892 149.284" stroke="black" stroke-miterlimit="10"/>
<path d="M70.3002 147.522L79.2188 156.251L86.8454 142.443" stroke="black" stroke-miterlimit="10"/>
<path d="M65.9331 154.123H70.2997C70.2997 154.123 71.1943 162.147 66.7719 163.621L65.9331 206.036" stroke="black" stroke-miterlimit="10"/>
<path d="M37.9384 206.042H29.4216L26.6683 150.966C27.279 150.537 27.9003 150.13 28.5324 149.734L34.3496 146.081L37.9384 206.042Z" fill="black"/>
<path d="M102.142 152.283L99.4634 206.041H90.9465L94.4604 147.227L98.4671 149.734C99.7312 150.525 100.963 151.372 102.142 152.283Z" fill="black"/>
<path d="M75.7669 118.109C66.8965 121.076 55.1657 124.89 50.4413 126.411L51.5983 114.22C54.8658 116.159 58.6368 117.262 62.9862 117.272C67.7643 117.272 71.8888 116.352 75.4455 114.713L75.7669 118.109Z" fill="black"/>
</svg>
