<svg width="119" height="160" viewBox="0 0 119 160" fill="none" xmlns="http://www.w3.org/2000/svg">
<path d="M44.8 106.179C45.49 109.765 46.2689 113.527 48.6529 116.292C52.3769 120.612 58.7449 121.192 64.4409 121.461C67.6679 121.613 71.428 121.533 73.403 118.978C74.862 117.093 74.808 114.5 75.048 112.128C75.813 104.576 80.096 97.9249 83.22 91.0079C91.226 73.2829 91.6579 52.2839 84.3909 34.2439C83.3789 31.7339 82.1719 29.2049 80.1449 27.4109C77.8649 25.3949 74.8 24.5289 71.802 24.0069C58.192 21.6339 31.9409 25.0269 32.8029 43.2649C33.7739 63.8159 40.908 85.9549 44.8 106.179Z" fill="#FFE7FB"/>
<path d="M104.264 185.626C106.77 185.696 109.475 185.709 111.516 184.255C114.973 181.793 114.729 176.667 114.053 172.477C111.698 157.881 107.688 142.078 95.7433 133.366C86.5353 126.651 74.4093 125.591 63.0213 125.992C53.8933 126.314 44.8073 127.419 35.7853 128.842C29.8983 129.77 23.7563 130.956 19.1183 134.7C12.6973 139.883 10.6653 148.644 9.02726 156.732C7.73726 163.097 1.60726 177.285 7.62926 182.036C13.1923 186.425 31.3633 183.575 38.3333 183.771C60.3103 184.389 82.2873 184.998 104.264 185.626Z" fill="#6987FF"/>
<path d="M48.0912 173.839C49.0772 178.148 50.5382 182.564 53.7112 185.643C56.8832 188.721 62.1992 189.979 65.7952 187.408C70.1262 184.312 69.8682 177.969 69.8772 172.646C69.8862 166.815 70.7612 160.987 72.4622 155.41C74.9502 147.256 79.2152 139.537 80.0032 131.049C80.2692 128.191 79.9402 124.905 77.6792 123.138C76.3052 122.064 74.4892 121.783 72.7572 121.576C63.1882 120.433 46.5032 117.564 43.4542 130.033C41.9962 135.993 44.5142 144.217 45.0602 150.265C45.7722 158.162 46.3182 166.088 48.0912 173.839Z" fill="#DBC9FF"/>
<path d="M44.6171 74.6279C42.1871 74.6519 39.7551 74.6759 37.3251 74.6999C36.6261 74.7059 35.8331 74.7549 35.3851 75.2919C34.8341 75.9519 35.1611 77.0259 35.8351 77.5599C36.5101 78.0929 37.4061 78.2289 38.2581 78.3459C39.3541 78.4969 40.4501 78.6479 41.5451 78.7989C43.0891 79.0119 44.8421 79.1679 46.0321 78.1619C47.2231 77.1559 46.7751 74.6059 45.2211 74.7239" fill="#F03FA3"/>
<path d="M78.7992 75.8477C76.3682 75.8717 73.9382 75.8947 71.5072 75.9187C70.8082 75.9257 70.0162 75.9747 69.5672 76.5117C69.0172 77.1717 69.3432 78.2457 70.0182 78.7797C70.6912 79.3127 71.5882 79.4487 72.4392 79.5657C73.5352 79.7167 74.6322 79.8677 75.7282 80.0187C77.2712 80.2307 79.0232 80.3877 80.2142 79.3817C81.4042 78.3757 80.9573 75.8257 79.4033 75.9447" fill="#F03FA3"/>
<path d="M40.3857 57.9367C41.0647 57.1217 41.9297 56.5527 42.8317 56.0887C43.7407 55.6347 44.7147 55.3207 45.7167 55.1377C47.7057 54.7787 49.8797 54.9277 51.6867 56.0067C50.6617 56.2947 49.7297 56.4097 48.8047 56.6087L46.0737 57.1047C44.2467 57.4157 42.4577 57.7827 40.3857 57.9367Z" fill="black"/>
<path d="M47.7979 65.5768C47.7979 67.1918 46.9769 68.4998 45.9629 68.4998C44.9499 68.4998 44.1289 67.1918 44.1289 65.5768C44.1289 63.9618 44.9499 62.6528 45.9629 62.6528C46.9769 62.6528 47.7979 63.9618 47.7979 65.5768Z" fill="black"/>
<path d="M80.4543 58.2486C78.3933 57.9776 76.6283 57.5106 74.8223 57.0976L72.1233 56.4486C71.2103 56.1986 70.2863 56.0306 69.2793 55.6846C71.1453 54.7106 73.3233 54.6836 75.2893 55.1536C76.2783 55.3926 77.2333 55.7616 78.1153 56.2656C78.9893 56.7806 79.8213 57.3966 80.4543 58.2486Z" fill="black"/>
<path d="M73.1289 65.5768C73.1289 67.1918 73.9499 68.4998 74.9639 68.4998C75.9769 68.4998 76.7979 67.1918 76.7979 65.5768C76.7979 63.9618 75.9769 62.6528 74.9639 62.6528C73.9499 62.6528 73.1289 63.9618 73.1289 65.5768Z" fill="black"/>
<path d="M58.1589 63.9209C58.2729 64.1719 57.4599 70.6659 55.3999 74.1379C55.3999 74.1379 54.9479 76.5279 59.5509 77.8269" stroke="black" stroke-miterlimit="10"/>
<path d="M53.5693 84.4517C53.5693 84.4517 61.6563 87.1327 67.9243 84.5897" stroke="black" stroke-miterlimit="10"/>
<path d="M47.36 100.92L46.22 112.96L45.75 117.89L42.79 119.75L26.2 130.15C15.63 136.78 8.18 147.38 5.53 159.57L0.5 182.7" stroke="black" stroke-miterlimit="10"/>
<path d="M71.4502 100.04L71.8702 104.5L72.6902 113.09L73.1402 117.89L92.6902 130.15C103.26 136.78 110.71 147.38 113.36 159.57L118.39 182.7" stroke="black" stroke-miterlimit="10"/>
<path d="M91.1805 46.3696C91.2305 48.2596 91.2405 50.0896 91.2105 51.8596C91.2105 51.8996 91.2205 51.9296 91.2205 51.9496C91.2205 51.9596 91.2205 51.9796 91.2105 51.9896C90.8805 74.2996 84.9405 87.0696 78.2605 94.3696C76.0105 96.8296 73.6805 98.6596 71.4505 100.04C70.7105 100.5 69.9805 100.9 69.2705 101.26C63.5805 104.15 59.0205 104.15 59.0205 104.15C57.8705 104.15 56.7605 104.07 55.7005 103.92C52.5905 103.49 49.8305 102.44 47.3605 100.92C45.7505 99.9296 44.2705 98.7396 42.9205 97.3896C33.8605 88.4096 30.0005 72.3296 28.2805 60.6096L28.2705 60.5996C28.2005 60.1196 28.1305 59.6396 28.0705 59.1796C27.0705 51.9196 26.8905 46.6496 26.7305 46.3696" stroke="black" stroke-miterlimit="10"/>
<path d="M101.469 20.6968C107.278 40.7188 114.843 120.45 74.9017 118.998L71.4457 100.04C80.3147 94.5598 90.7657 81.7898 91.2057 51.9898C91.2157 51.9798 91.2157 51.9798 91.2157 51.9798C91.2157 51.9798 91.2157 51.9698 91.2157 51.9498C91.2157 51.9298 91.2057 51.8998 91.2057 51.8598C91.1557 50.9598 90.3957 44.9698 80.1047 30.4698C80.1047 30.4698 66.8357 46.3698 47.3557 46.3698C29.0657 46.3698 27.8457 55.5798 28.0657 59.1798C28.1257 60.0598 28.2657 60.5998 28.2657 60.5998L28.2757 60.6098C30.2557 74.0898 35.0657 93.3498 47.3557 100.92L45.7457 117.89L19.1177 134.7C16.7527 114.542 13.1547 88.1318 13.3147 55.4218C13.3147 55.4218 12.0947 -5.31116 69.2357 0.375844C69.2357 0.375844 82.8297 2.73084 84.7427 9.11884C84.7427 9.11884 98.5777 10.7378 101.469 20.6968Z" fill="black"/>
<path d="M45.7461 117.89C45.7461 117.89 59.2881 126.66 73.1361 117.89" stroke="black" stroke-miterlimit="10"/>
<path d="M43.9834 118.998C43.9834 118.998 59.4584 132.621 74.9024 118.998" stroke="black" stroke-miterlimit="10"/>
<path d="M52.356 182.7C52.356 182.7 52.246 182.19 52.046 181.25C51.816 180.18 51.476 178.56 51.046 176.53C50.726 175.03 50.356 173.29 49.956 171.39C49.636 169.91 49.306 168.33 48.946 166.67C48.596 165.02 48.236 163.3 47.856 161.53C47.536 159.99 47.196 158.41 46.856 156.81C46.496 155.1 46.136 153.38 45.766 151.67C45.436 150.09 45.096 148.51 44.766 146.95C44.396 145.2 44.036 143.48 43.686 141.81C43.336 140.19 43.006 138.6 42.686 137.09C40.846 128.33 39.496 121.82 39.536 121.79" stroke="black" stroke-miterlimit="10"/>
<path d="M30.3772 127.529C30.0612 127.727 28.7422 141.37 28.7422 141.37L41.2772 154.737L37.7612 162.853L50.7952 175.346" stroke="black" stroke-miterlimit="10"/>
<path d="M65.8262 182.7C65.8262 182.7 65.9362 182.19 66.1362 181.25C66.3662 180.18 66.7062 178.56 67.1362 176.53C67.4562 175.03 67.8262 173.29 68.2262 171.39C68.5462 169.91 68.8862 168.33 69.2362 166.67C69.5862 165.02 69.9562 163.3 70.3262 161.53C70.6562 159.99 70.9862 158.41 71.3262 156.81C71.6862 155.1 72.0462 153.38 72.4162 151.67C72.7462 150.09 73.0862 148.51 73.4062 146.95C73.7762 145.2 74.1462 143.48 74.4962 141.81C74.8362 140.19 75.1762 138.6 75.4862 137.09C77.3362 128.33 78.6862 121.82 78.6462 121.79" stroke="black" stroke-miterlimit="10"/>
<path d="M87.8047 127.529C88.1207 127.727 89.4397 141.37 89.4397 141.37L76.9047 154.737L80.4207 162.853L67.3867 175.346" stroke="black" stroke-miterlimit="10"/>
<path d="M75.4855 137.09C75.1755 138.6 74.8355 140.19 74.4955 141.81H43.6855C43.3355 140.19 43.0055 138.6 42.6855 137.09H75.4855Z" fill="black"/>
<path d="M73.4056 146.95C73.0856 148.51 72.7456 150.09 72.4156 151.67H45.7656C45.4356 150.09 45.0956 148.51 44.7656 146.95H73.4056Z" fill="black"/>
<path d="M71.3264 156.81C70.9864 158.41 70.6564 159.99 70.3264 161.53H47.8564C47.5364 159.99 47.1964 158.41 46.8564 156.81H71.3264Z" fill="black"/>
<path d="M54.5694 24.3787C54.5694 30.7947 48.2354 35.9967 40.4214 35.9967C32.6074 35.9967 26.2734 30.7947 26.2734 24.3787C26.2734 17.9627 32.6074 12.7607 40.4214 12.7607C48.2354 12.7607 54.5694 17.9627 54.5694 24.3787Z" stroke="white" stroke-width="2" stroke-miterlimit="10"/>
<path d="M91.6759 24.3787C91.6759 30.7947 85.3409 35.9967 77.5269 35.9967C69.7139 35.9967 63.3789 30.7947 63.3789 24.3787C63.3789 17.9627 69.7139 12.7607 77.5269 12.7607C85.3409 12.7607 91.6759 17.9627 91.6759 24.3787Z" stroke="white" stroke-width="2" stroke-miterlimit="10"/>
<path d="M54.5693 24.3788C54.5693 24.3788 58.6663 20.7238 63.3793 24.3788" stroke="white" stroke-width="2" stroke-miterlimit="10"/>
<path d="M71.8697 104.5C64.0197 107.16 51.8397 111.13 46.2197 112.96L47.3597 100.92C49.8297 102.44 52.5897 103.49 55.6997 103.92C56.7597 104.07 57.8697 104.15 59.0197 104.15C59.0197 104.15 63.5797 104.15 69.2697 101.26C69.9797 100.9 70.7097 100.5 71.4497 100.04L71.8697 104.5Z" fill="black"/>
</svg>
