<svg width="123" height="158" viewBox="0 0 123 158" fill="none" xmlns="http://www.w3.org/2000/svg">
<path d="M36.176 84.5623C38.325 88.5413 41.408 91.9504 43.608 95.9014C47.032 102.044 48.167 109.24 48.104 116.273C48.087 118.196 48.003 120.209 48.839 121.942C50.632 125.658 55.544 126.328 59.667 126.507C66.235 126.792 74.721 125.748 76.346 119.378C77.011 116.769 76.186 114.042 76.015 111.356C75.491 103.082 81.158 95.7374 87.217 90.0803C93.277 84.4223 100.253 79.2723 103.797 71.7773C104.715 69.8353 105.363 67.4964 104.364 65.5954C102.202 61.4784 94.809 63.1504 92.524 59.0994C91.839 57.8844 91.813 56.4263 91.654 55.0403C90.229 42.6563 76.733 34.4474 64.274 34.8444C54.753 35.1484 37.279 40.1473 32.996 49.8083C29.054 58.6993 31.826 76.5033 36.176 84.5623Z" fill="#FFE7FB"/>
<path d="M2.3514 179.225C2.2284 183.123 2.90038 187.653 6.24538 189.658C7.92638 190.666 9.96938 190.813 11.9264 190.928C47.4564 193.011 83.1144 192.903 118.63 190.608C119.605 190.544 120.643 190.456 121.415 189.859C123.017 188.616 122.533 186.117 121.871 184.202C118.444 174.299 114.367 164.621 109.673 155.252C106.914 149.739 103.434 143.888 97.6054 141.882C89.4954 139.09 81.2044 144.909 72.8294 146.762C56.1654 150.448 42.0314 132.583 26.8914 137.398C11.6244 142.252 2.8054 164.828 2.3514 179.225Z" fill="#C3C62B"/>
<path d="M41.5424 129.823C41.2314 130.323 40.9294 130.873 40.9624 131.46C41.0034 132.17 41.5174 132.752 42.0204 133.255C52.4154 143.656 70.3585 145.36 82.5245 137.1C84.0475 136.066 85.5304 134.838 86.3074 133.169C87.8384 129.881 86.0334 125.751 83.0134 123.742C79.9944 121.733 76.1284 121.458 72.5245 121.858C68.9195 122.257 65.3984 123.26 61.7844 123.57C52.7534 124.347 46.8854 121.231 41.5424 129.823Z" fill="#6987FF"/>
<path d="M45.7707 78.6216C43.3387 78.6456 40.9087 78.6696 38.4777 78.6936C37.7787 78.6996 36.9867 78.7486 36.5387 79.2856C35.9877 79.9456 36.3137 81.0206 36.9887 81.5536C37.6627 82.0866 38.5587 82.2226 39.4117 82.3396C40.5067 82.4906 41.6027 82.6416 42.6987 82.7926C44.2427 83.0056 45.9947 83.1616 47.1847 82.1556C48.3757 81.1506 47.9287 78.6006 46.3747 78.7186" fill="#F03FA3"/>
<path d="M79.9521 79.8413C77.5211 79.8653 75.0901 79.8893 72.6591 79.9123C71.9611 79.9193 71.1681 79.9693 70.7201 80.5053C70.1691 81.1653 70.4961 82.2393 71.1691 82.7733C71.8441 83.3073 72.7411 83.4433 73.5921 83.5603C74.6881 83.7103 75.7841 83.8613 76.8791 84.0123C78.4241 84.2253 80.1761 84.3823 81.3671 83.3753C82.5571 82.3693 82.1101 79.8193 80.5551 79.9383" fill="#F03FA3"/>
<path d="M38.8965 59.9634C39.7095 59.2814 40.6615 58.8744 41.6295 58.5764C42.6045 58.2894 43.6205 58.1524 44.6375 58.1494C46.6595 58.1474 48.7725 58.6774 50.3615 60.0584C49.3005 60.1604 48.3645 60.1104 47.4185 60.1424L44.6415 60.1494C42.7895 60.1314 40.9635 60.1774 38.8965 59.9634Z" fill="black"/>
<path d="M46.4669 69.8854C46.4669 71.5004 45.6458 72.8094 44.6328 72.8094C43.6198 72.8094 42.7979 71.5004 42.7979 69.8854C42.7979 68.2714 43.6198 66.9624 44.6328 66.9624C45.6458 66.9624 46.4669 68.2714 46.4669 69.8854Z" fill="black"/>
<path d="M78.92 59.8221C76.856 60.0621 75.031 60.0371 73.178 60.0761L70.403 60.1041C69.456 60.0821 68.519 60.1451 67.459 60.0551C69.03 58.6551 71.137 58.0991 73.158 58.0771C74.176 58.0681 75.192 58.1931 76.17 58.4681C77.143 58.7541 78.1 59.1501 78.92 59.8221Z" fill="black"/>
<path d="M71.7979 69.8854C71.7979 71.5004 72.6198 72.8094 73.6328 72.8094C74.6458 72.8094 75.4669 71.5004 75.4669 69.8854C75.4669 68.2714 74.6458 66.9624 73.6328 66.9624C72.6198 66.9624 71.7979 68.2714 71.7979 69.8854Z" fill="black"/>
<path d="M55.5473 68.2295C55.6633 68.4815 55.2333 75.1835 54.0693 78.4475C54.0693 78.4475 54.0693 83.1165 59.4433 82.1365" stroke="black" stroke-miterlimit="10"/>
<path d="M52.2656 89.1043C52.2656 89.1043 60.2636 89.6433 66.6216 88.5493" stroke="black" stroke-miterlimit="10"/>
<path d="M0.5 187.009L5.53 163.879C8.18 151.689 15.63 141.089 26.2 134.458L45.75 122.198L46.33 116.019H46.34L47.65 102.099L47.68 101.799" stroke="black" stroke-miterlimit="10"/>
<path d="M118.39 187.009L113.36 163.879C110.71 151.689 103.26 141.089 92.6902 134.458L73.1403 122.198L71.7502 107.589L71.2603 102.328L71.2402 102.158" stroke="black" stroke-miterlimit="10"/>
<path d="M26.7305 50.6792C27.1705 51.4292 26.1705 80.9582 43.8105 98.6792C47.8305 102.708 52.8204 106.139 59.0204 108.458C59.0204 108.458 64.6805 107.599 71.2605 102.328C72.5605 101.299 73.8905 100.089 75.2205 98.6792C82.7805 90.6982 90.3205 76.3492 91.1705 50.6792" stroke="black" stroke-miterlimit="10"/>
<path d="M28.0942 66.8503C28.0942 66.8503 20.6882 59.0093 17.5782 63.2033C14.4662 67.3993 22.8522 85.7153 33.2902 82.5943" stroke="black" stroke-miterlimit="10"/>
<path d="M22.5996 70.3942C22.5996 70.3942 27.6286 69.9912 30.1126 73.7952" stroke="black" stroke-miterlimit="10"/>
<path d="M25.6084 74.1721C25.6084 74.1721 25.6224 72.4411 28.8594 72.3701" stroke="black" stroke-miterlimit="10"/>
<path d="M89.5377 66.8503C89.5377 66.8503 96.4137 58.5394 99.7937 62.5224C103.172 66.5044 96.0057 85.3314 85.3857 82.9014" stroke="black" stroke-miterlimit="10"/>
<path d="M95.44 70.0294C95.44 70.0294 90.396 69.9574 88.167 73.9164" stroke="black" stroke-miterlimit="10"/>
<path d="M92.6842 73.9961C92.6842 73.9961 92.5572 72.2701 89.3232 72.4121" stroke="black" stroke-miterlimit="10"/>
<path d="M45.7471 122.195C45.7471 122.195 59.2011 131.804 73.1391 122.195" stroke="black" stroke-miterlimit="10"/>
<path d="M58.9504 126.466L52.3764 134.753C52.3764 134.753 44.9304 132.929 41.3154 124.975" stroke="black" stroke-miterlimit="10"/>
<path d="M60.2363 126.466L66.8093 134.753C66.8093 134.753 74.2553 132.929 77.8703 124.975" stroke="black" stroke-miterlimit="10"/>
<path d="M36.5791 127.945C36.5791 127.945 46.0261 140.868 59.4431 143.467C59.4431 143.467 73.5621 141.579 81.5431 127.466" stroke="black" stroke-miterlimit="10"/>
<path d="M33.665 129.864C33.665 129.864 46.026 144.766 59.443 147.364C59.443 147.364 76.431 143.378 84.412 129.265" stroke="black" stroke-miterlimit="10"/>
<path d="M59.4434 147.364V187.011" stroke="black" stroke-miterlimit="10"/>
<path d="M77.8708 40.7405C77.8708 40.7405 55.6008 53.0945 41.3158 54.0405C27.0318 54.9865 28.7588 67.9965 28.7588 67.9965C28.7588 67.9965 17.5998 53.5815 18.9748 33.1745C20.3508 12.7675 61.5968 -2.82552 82.1328 13.9135C82.1328 13.9135 110.482 26.6725 89.8288 65.2765C89.8288 65.2765 82.1928 58.6265 77.8708 40.7405Z" fill="black"/>
<path d="M70.4627 12.7264C70.6007 11.1034 70.9227 9.4964 71.4287 7.9494C72.9957 3.1584 78.0017 0.635401 82.8057 0.113401C84.4287 -0.0625993 86.0867 -0.059592 87.6757 0.308408C92.0587 1.32241 95.4377 5.05042 97.0857 9.23642C98.2097 12.0914 98.6497 15.2144 98.3447 18.2684C98.1727 19.9904 97.7577 21.7124 96.8967 23.2144C96.2097 24.4134 95.2527 25.4454 94.1767 26.3144C90.3347 29.4204 84.3687 30.5084 79.5997 29.5184C76.4227 28.8604 74.0757 26.8864 72.6177 24.0274C70.8507 20.5624 70.1327 16.5974 70.4627 12.7264Z" fill="black"/>
<path d="M71.7508 107.589C65.8008 109.658 53.9108 113.559 46.3408 116.019L47.6508 102.099C50.9008 104.649 54.6608 106.828 59.0208 108.458C59.0208 108.458 64.6808 107.599 71.2608 102.328L71.7508 107.589Z" fill="black"/>
</svg>
